<?xml version="1.0" encoding="UTF-8"?>
<svg id="Layer_1" xmlns="http://www.w3.org/2000/svg" version="1.1" viewBox="0 0 512 512">
  <!-- Generator: Adobe Illustrator 30.3.0, SVG Export Plug-In . SVG Version: 2.1.3 Build 182)  -->
  <defs>
    <style>
      .st0 {
        fill: #fff;
      }
    </style>
  </defs>
  <g id="_01_align_center">
    <path class="st0" d="M373.3,19.6c-48.9.8-93.7,27.6-117.3,70.4-23.7-42.8-68.4-69.6-117.3-70.4C58.9,23-3,90.2,0,170c0,144.5,233.7,311.5,243.7,318.5l12.3,8.7,12.3-8.7c9.9-7,243.7-174,243.7-318.5,3-79.7-58.9-146.9-138.7-150.4ZM256,444.7c-69.4-51.8-213.3-179.2-213.3-274.8-3-56.2,39.8-104.3,96-107.7,56.2,3.4,99,51.5,96,107.7h42.7c-3-56.2,39.8-104.3,96-107.7,56.2,3.4,99,51.5,96,107.7,0,95.6-143.9,222.9-213.3,274.8Z"/>
  </g>
</svg>